{
	"asset":{
		"generator":"Khronos glTF Blender I/O v3.6.27",
		"version":"2.0"
	},
	"scene":0,
	"scenes":[
		{
			"name":"Scene",
			"nodes":[
				0
			]
		}
	],
	"nodes":[
		{
			"mesh":0,
			"name":"L EYE.005",
			"rotation":[
				-0.137441024184227,
				-0.6243197917938232,
				-0.4138755798339844,
				0.6481063365936279
			],
			"scale":[
				0.689624547958374,
				0.689624547958374,
				0.689624547958374
			],
			"translation":[
				-10.638961791992188,
				2.9601664543151855,
				2.3593902587890625
			]
		}
	],
	"materials":[
		{
			"doubleSided":true,
			"name":"EYEBALL",
			"pbrMetallicRoughness":{
				"baseColorTexture":{
					"index":0
				},
				"metallicFactor":0,
				"roughnessFactor":0.0928143858909607
			}
		},
		{
			"doubleSided":true,
			"name":"Material.005",
			"pbrMetallicRoughness":{
				"baseColorTexture":{
					"index":1
				},
				"metallicFactor":0,
				"roughnessFactor":0.5
			}
		}
	],
	"meshes":[
		{
			"name":"Sphere.019",
			"primitives":[
				{
					"attributes":{
						"POSITION":0,
						"NORMAL":1,
						"TEXCOORD_0":2
					},
					"indices":3,
					"material":0
				},
				{
					"attributes":{
						"POSITION":4,
						"NORMAL":5,
						"TEXCOORD_0":6
					},
					"indices":7,
					"material":1
				}
			]
		}
	],
	"textures":[
		{
			"sampler":0,
			"source":0
		},
		{
			"sampler":0,
			"source":1
		}
	],
	"images":[
		{
			"bufferView":4,
			"mimeType":"image/png",
			"name":"EYEBALL"
		},
		{
			"bufferView":9,
			"mimeType":"image/png",
			"name":"ORANGE GLOB"
		}
	],
	"accessors":[
		{
			"bufferView":0,
			"componentType":5126,
			"count":1192,
			"max":[
				1.2671732902526855,
				1,
				2.516824960708618
			],
			"min":[
				-0.9999990463256836,
				-2.5485544204711914,
				-1
			],
			"type":"VEC3"
		},
		{
			"bufferView":1,
			"componentType":5126,
			"count":1192,
			"type":"VEC3"
		},
		{
			"bufferView":2,
			"componentType":5126,
			"count":1192,
			"type":"VEC2"
		},
		{
			"bufferView":3,
			"componentType":5123,
			"count":5760,
			"type":"SCALAR"
		},
		{
			"bufferView":5,
			"componentType":5126,
			"count":9588,
			"max":[
				0.5208401679992676,
				1.870530128479004,
				4.574064254760742
			],
			"min":[
				-6.370575904846191,
				-5.592184543609619,
				-4.112066268920898
			],
			"type":"VEC3"
		},
		{
			"bufferView":6,
			"componentType":5126,
			"count":9588,
			"type":"VEC3"
		},
		{
			"bufferView":7,
			"componentType":5126,
			"count":9588,
			"type":"VEC2"
		},
		{
			"bufferView":8,
			"componentType":5123,
			"count":52128,
			"type":"SCALAR"
		}
	],
	"bufferViews":[
		{
			"buffer":0,
			"byteLength":14304,
			"byteOffset":0,
			"target":34962
		},
		{
			"buffer":0,
			"byteLength":14304,
			"byteOffset":14304,
			"target":34962
		},
		{
			"buffer":0,
			"byteLength":9536,
			"byteOffset":28608,
			"target":34962
		},
		{
			"buffer":0,
			"byteLength":11520,
			"byteOffset":38144,
			"target":34963
		},
		{
			"buffer":0,
			"byteLength":111533,
			"byteOffset":49664
		},
		{
			"buffer":0,
			"byteLength":115056,
			"byteOffset":161200,
			"target":34962
		},
		{
			"buffer":0,
			"byteLength":115056,
			"byteOffset":276256,
			"target":34962
		},
		{
			"buffer":0,
			"byteLength":76704,
			"byteOffset":391312,
			"target":34962
		},
		{
			"buffer":0,
			"byteLength":104256,
			"byteOffset":468016,
			"target":34963
		},
		{
			"buffer":0,
			"byteLength":75570,
			"byteOffset":572272
		}
	],
	"samplers":[
		{
			"magFilter":9729,
			"minFilter":9987
		}
	],
	"buffers":[
		{
			"byteLength":647844,
			"uri":"data:application/octet-stream;base64,"
		}
	]
}
