{
	"asset":{
		"generator":"Khronos glTF Blender I/O v3.6.27",
		"version":"2.0"
	},
	"scene":0,
	"scenes":[
		{
			"name":"Scene",
			"nodes":[
				0,
				1,
				2,
				3
			]
		}
	],
	"nodes":[
		{
			"mesh":0,
			"name":"BOLT_1",
			"rotation":[
				0.7071068286895752,
				0,
				0,
				0.7071068286895752
			],
			"translation":[
				9.206262588500977,
				3.9978697299957275,
				5.809057235717773
			]
		},
		{
			"mesh":1,
			"name":"BOLT_2",
			"rotation":[
				0.7071068286895752,
				0,
				0,
				0.7071068286895752
			],
			"translation":[
				11.197142601013184,
				3.9978697299957275,
				5.809057235717773
			]
		},
		{
			"mesh":2,
			"name":"PINK_BALL_1",
			"rotation":[
				0.7071068286895752,
				0,
				0,
				0.7071068286895752
			],
			"translation":[
				10.203944206237793,
				3.194715738296509,
				2.6645760536193848
			]
		},
		{
			"mesh":3,
			"name":"SMILE",
			"rotation":[
				0.7071068286895752,
				0,
				0,
				0.7071068286895752
			],
			"translation":[
				10.247441291809082,
				1.7844202518463135,
				5.338744640350342
			]
		}
	],
	"materials":[
		{
			"doubleSided":true,
			"name":"AIR_J_COLOR",
			"pbrMetallicRoughness":{
				"baseColorFactor":[
					0.7681509852409363,
					0.011611999943852425,
					0.07421399652957916,
					1
				],
				"metallicFactor":0,
				"roughnessFactor":0.5
			}
		},
		{
			"doubleSided":true,
			"name":"SMILY_FACE",
			"pbrMetallicRoughness":{
				"baseColorFactor":[
					0.9386856555938721,
					0.5583401322364807,
					0.004024901427328587,
					1
				],
				"metallicFactor":0,
				"roughnessFactor":0.5
			}
		},
		{
			"doubleSided":true,
			"name":"BLACK_SMILE",
			"pbrMetallicRoughness":{
				"baseColorFactor":[
					0,
					0,
					0,
					1
				],
				"metallicFactor":0,
				"roughnessFactor":0.49148935079574585
			}
		}
	],
	"meshes":[
		{
			"name":"BOLT_1",
			"primitives":[
				{
					"attributes":{
						"POSITION":0,
						"NORMAL":1,
						"TEXCOORD_0":2
					},
					"indices":3,
					"material":0
				}
			]
		},
		{
			"name":"BOLT_2",
			"primitives":[
				{
					"attributes":{
						"POSITION":4,
						"NORMAL":5,
						"TEXCOORD_0":6
					},
					"indices":3,
					"material":0
				}
			]
		},
		{
			"name":"PINK_BALL_1",
			"primitives":[
				{
					"attributes":{
						"POSITION":7,
						"NORMAL":8,
						"TEXCOORD_0":9
					},
					"indices":10,
					"material":1
				}
			]
		},
		{
			"name":"SMILE",
			"primitives":[
				{
					"attributes":{
						"POSITION":11,
						"NORMAL":12,
						"TEXCOORD_0":13
					},
					"indices":14,
					"material":2
				}
			]
		}
	],
	"accessors":[
		{
			"bufferView":0,
			"componentType":5126,
			"count":472,
			"max":[
				0.8121414184570312,
				0.24155616760253906,
				1.7895336151123047
			],
			"min":[
				-0.7567956447601318,
				-0.2415475845336914,
				-1.6598644256591797
			],
			"type":"VEC3"
		},
		{
			"bufferView":1,
			"componentType":5126,
			"count":472,
			"type":"VEC3"
		},
		{
			"bufferView":2,
			"componentType":5126,
			"count":472,
			"type":"VEC2"
		},
		{
			"bufferView":3,
			"componentType":5123,
			"count":924,
			"type":"SCALAR"
		},
		{
			"bufferView":4,
			"componentType":5126,
			"count":472,
			"max":[
				0.8121411800384521,
				0.24155616760253906,
				1.7895336151123047
			],
			"min":[
				-0.7567958831787109,
				-0.2415475845336914,
				-1.6598644256591797
			],
			"type":"VEC3"
		},
		{
			"bufferView":5,
			"componentType":5126,
			"count":472,
			"type":"VEC3"
		},
		{
			"bufferView":6,
			"componentType":5126,
			"count":472,
			"type":"VEC2"
		},
		{
			"bufferView":7,
			"componentType":5126,
			"count":8249,
			"max":[
				2.8601999282836914,
				2.860196352005005,
				2.8903274536132812
			],
			"min":[
				-2.8602113723754883,
				-2.8602166175842285,
				-2.8900318145751953
			],
			"type":"VEC3"
		},
		{
			"bufferView":8,
			"componentType":5126,
			"count":8249,
			"type":"VEC3"
		},
		{
			"bufferView":9,
			"componentType":5126,
			"count":8249,
			"type":"VEC2"
		},
		{
			"bufferView":10,
			"componentType":5123,
			"count":47616,
			"type":"SCALAR"
		},
		{
			"bufferView":11,
			"componentType":5126,
			"count":128,
			"max":[
				2.168553590774536,
				0.24554872512817383,
				0.8506851196289062
			],
			"min":[
				-2.3032593727111816,
				-0.24554729461669922,
				-1.0113716125488281
			],
			"type":"VEC3"
		},
		{
			"bufferView":12,
			"componentType":5126,
			"count":128,
			"type":"VEC3"
		},
		{
			"bufferView":13,
			"componentType":5126,
			"count":128,
			"type":"VEC2"
		},
		{
			"bufferView":14,
			"componentType":5123,
			"count":492,
			"type":"SCALAR"
		}
	],
	"bufferViews":[
		{
			"buffer":0,
			"byteLength":5664,
			"byteOffset":0,
			"target":34962
		},
		{
			"buffer":0,
			"byteLength":5664,
			"byteOffset":5664,
			"target":34962
		},
		{
			"buffer":0,
			"byteLength":3776,
			"byteOffset":11328,
			"target":34962
		},
		{
			"buffer":0,
			"byteLength":1848,
			"byteOffset":15104,
			"target":34963
		},
		{
			"buffer":0,
			"byteLength":5664,
			"byteOffset":16952,
			"target":34962
		},
		{
			"buffer":0,
			"byteLength":5664,
			"byteOffset":22616,
			"target":34962
		},
		{
			"buffer":0,
			"byteLength":3776,
			"byteOffset":28280,
			"target":34962
		},
		{
			"buffer":0,
			"byteLength":98988,
			"byteOffset":32056,
			"target":34962
		},
		{
			"buffer":0,
			"byteLength":98988,
			"byteOffset":131044,
			"target":34962
		},
		{
			"buffer":0,
			"byteLength":65992,
			"byteOffset":230032,
			"target":34962
		},
		{
			"buffer":0,
			"byteLength":95232,
			"byteOffset":296024,
			"target":34963
		},
		{
			"buffer":0,
			"byteLength":1536,
			"byteOffset":391256,
			"target":34962
		},
		{
			"buffer":0,
			"byteLength":1536,
			"byteOffset":392792,
			"target":34962
		},
		{
			"buffer":0,
			"byteLength":1024,
			"byteOffset":394328,
			"target":34962
		},
		{
			"buffer":0,
			"byteLength":984,
			"byteOffset":395352,
			"target":34963
		}
	],
	"buffers":[
		{
			"byteLength":396336,
			"uri":"data:application/octet-stream;base64,"
		}
	]
}
