{
	"asset":{
		"generator":"Khronos glTF Blender I/O v3.6.27",
		"version":"2.0"
	},
	"scene":0,
	"scenes":[
		{
			"name":"Scene",
			"nodes":[
				0
			]
		}
	],
	"nodes":[
		{
			"mesh":0,
			"name":"BOLT 2",
			"rotation":[
				0.7071068286895752,
				0,
				0,
				0.7071068286895752
			],
			"scale":[
				0.2415517419576645,
				0.2415517419576645,
				0.2415517419576645
			],
			"translation":[
				-0.38380640745162964,
				21.961301803588867,
				5.809062957763672
			]
		}
	],
	"materials":[
		{
			"doubleSided":true,
			"name":"AIR J COLOR",
			"pbrMetallicRoughness":{
				"baseColorFactor":[
					0.7681514620780945,
					0.011612031608819962,
					0.07421355694532394,
					1
				],
				"metallicFactor":0,
				"roughnessFactor":0.5
			}
		}
	],
	"meshes":[
		{
			"name":"Cube.027",
			"primitives":[
				{
					"attributes":{
						"POSITION":0,
						"NORMAL":1,
						"TEXCOORD_0":2
					},
					"indices":3,
					"material":0
				}
			]
		}
	],
	"accessors":[
		{
			"bufferView":0,
			"componentType":5126,
			"count":472,
			"max":[
				3.765054225921631,
				1,
				8.610215187072754
			],
			"min":[
				-2.730186939239502,
				-1,
				-5.669943332672119
			],
			"type":"VEC3"
		},
		{
			"bufferView":1,
			"componentType":5126,
			"count":472,
			"type":"VEC3"
		},
		{
			"bufferView":2,
			"componentType":5126,
			"count":472,
			"type":"VEC2"
		},
		{
			"bufferView":3,
			"componentType":5123,
			"count":924,
			"type":"SCALAR"
		}
	],
	"bufferViews":[
		{
			"buffer":0,
			"byteLength":5664,
			"byteOffset":0,
			"target":34962
		},
		{
			"buffer":0,
			"byteLength":5664,
			"byteOffset":5664,
			"target":34962
		},
		{
			"buffer":0,
			"byteLength":3776,
			"byteOffset":11328,
			"target":34962
		},
		{
			"buffer":0,
			"byteLength":1848,
			"byteOffset":15104,
			"target":34963
		}
	],
	"buffers":[
		{
			"byteLength":16952,
			"uri":"data:application/octet-stream;base64,"
		}
	]
}
