{
	"asset":{
		"generator":"Khronos glTF Blender I/O v3.6.27",
		"version":"2.0"
	},
	"extensionsUsed":[
		"KHR_materials_specular",
		"KHR_materials_ior"
	],
	"scene":0,
	"scenes":[
		{
			"name":"Scene",
			"nodes":[
				0
			]
		}
	],
	"nodes":[
		{
			"mesh":0,
			"name":"Curve.007",
			"rotation":[
				0.7071068286895752,
				0,
				0,
				0.7071068286895752
			],
			"scale":[
				0.09225638955831528,
				0.09225638955831528,
				0.09225638955831528
			],
			"translation":[
				-0.10027913004159927,
				0,
				0
			]
		}
	],
	"animations":[
		{
			"channels":[
				{
					"sampler":0,
					"target":{
						"node":0,
						"path":"translation"
					}
				},
				{
					"sampler":1,
					"target":{
						"node":0,
						"path":"rotation"
					}
				},
				{
					"sampler":2,
					"target":{
						"node":0,
						"path":"scale"
					}
				}
			],
			"name":"Curve.007Action",
			"samplers":[
				{
					"input":12,
					"interpolation":"STEP",
					"output":13
				},
				{
					"input":14,
					"interpolation":"LINEAR",
					"output":15
				},
				{
					"input":12,
					"interpolation":"STEP",
					"output":16
				}
			]
		}
	],
	"materials":[
		{
			"doubleSided":true,
			"extensions":{
				"KHR_materials_specular":{
					"specularColorFactor":[
						0.8751438646933816,
						0.8751438646933816,
						0.8751438646933816
					]
				},
				"KHR_materials_ior":{
					"ior":1.4500000476837158
				}
			},
			"name":"Material.001",
			"pbrMetallicRoughness":{
				"baseColorFactor":[
					0.7835379838943481,
					0.11953823268413544,
					0.006995465140789747,
					1
				],
				"metallicFactor":0,
				"roughnessFactor":0
			}
		},
		{
			"doubleSided":true,
			"name":"Material.002",
			"pbrMetallicRoughness":{
				"baseColorFactor":[
					0.056127991527318954,
					0.6307570934295654,
					0.024157801643013954,
					1
				],
				"metallicFactor":0,
				"roughnessFactor":0.5
			}
		},
		{
			"doubleSided":true,
			"name":"Material.003",
			"pbrMetallicRoughness":{
				"baseColorFactor":[
					0.800000011920929,
					0.800000011920929,
					0.800000011920929,
					1
				],
				"metallicFactor":0,
				"roughnessFactor":0.5
			}
		}
	],
	"meshes":[
		{
			"name":"Curve.007",
			"primitives":[
				{
					"attributes":{
						"POSITION":0,
						"NORMAL":1,
						"TEXCOORD_0":2
					},
					"indices":3,
					"material":0
				},
				{
					"attributes":{
						"POSITION":4,
						"NORMAL":5,
						"TEXCOORD_0":6
					},
					"indices":7,
					"material":1
				},
				{
					"attributes":{
						"POSITION":8,
						"NORMAL":9,
						"TEXCOORD_0":10
					},
					"indices":11,
					"material":2
				}
			]
		}
	],
	"accessors":[
		{
			"bufferView":0,
			"componentType":5126,
			"count":35663,
			"max":[
				0.2098652720451355,
				0.03481421247124672,
				-0.004759371280670166
			],
			"min":[
				0.008392605930566788,
				0,
				-0.20530301332473755
			],
			"type":"VEC3"
		},
		{
			"bufferView":1,
			"componentType":5126,
			"count":35663,
			"type":"VEC3"
		},
		{
			"bufferView":2,
			"componentType":5126,
			"count":35663,
			"type":"VEC2"
		},
		{
			"bufferView":3,
			"componentType":5123,
			"count":70764,
			"type":"SCALAR"
		},
		{
			"bufferView":4,
			"componentType":5126,
			"count":4745,
			"max":[
				0.1431218683719635,
				0.03481421247124672,
				-0.11762278527021408
			],
			"min":[
				0.07376281917095184,
				0,
				-0.1912265419960022
			],
			"type":"VEC3"
		},
		{
			"bufferView":5,
			"componentType":5126,
			"count":4745,
			"type":"VEC3"
		},
		{
			"bufferView":6,
			"componentType":5126,
			"count":4745,
			"type":"VEC2"
		},
		{
			"bufferView":7,
			"componentType":5123,
			"count":9792,
			"type":"SCALAR"
		},
		{
			"bufferView":8,
			"componentType":5126,
			"count":1750,
			"max":[
				0.14211633801460266,
				0.03481421247124672,
				-0.07831956446170807
			],
			"min":[
				0.11163195222616196,
				0,
				-0.09522328525781631
			],
			"type":"VEC3"
		},
		{
			"bufferView":9,
			"componentType":5126,
			"count":1750,
			"type":"VEC3"
		},
		{
			"bufferView":10,
			"componentType":5126,
			"count":1750,
			"type":"VEC2"
		},
		{
			"bufferView":11,
			"componentType":5123,
			"count":3456,
			"type":"SCALAR"
		},
		{
			"bufferView":12,
			"componentType":5126,
			"count":2,
			"max":[
				7.5
			],
			"min":[
				0.041666666666666664
			],
			"type":"SCALAR"
		},
		{
			"bufferView":13,
			"componentType":5126,
			"count":2,
			"type":"VEC3"
		},
		{
			"bufferView":14,
			"componentType":5126,
			"count":180,
			"max":[
				7.5
			],
			"min":[
				0.041666666666666664
			],
			"type":"SCALAR"
		},
		{
			"bufferView":15,
			"componentType":5126,
			"count":180,
			"type":"VEC4"
		},
		{
			"bufferView":16,
			"componentType":5126,
			"count":2,
			"type":"VEC3"
		}
	],
	"bufferViews":[
		{
			"buffer":0,
			"byteLength":427956,
			"byteOffset":0,
			"target":34962
		},
		{
			"buffer":0,
			"byteLength":427956,
			"byteOffset":427956,
			"target":34962
		},
		{
			"buffer":0,
			"byteLength":285304,
			"byteOffset":855912,
			"target":34962
		},
		{
			"buffer":0,
			"byteLength":141528,
			"byteOffset":1141216,
			"target":34963
		},
		{
			"buffer":0,
			"byteLength":56940,
			"byteOffset":1282744,
			"target":34962
		},
		{
			"buffer":0,
			"byteLength":56940,
			"byteOffset":1339684,
			"target":34962
		},
		{
			"buffer":0,
			"byteLength":37960,
			"byteOffset":1396624,
			"target":34962
		},
		{
			"buffer":0,
			"byteLength":19584,
			"byteOffset":1434584,
			"target":34963
		},
		{
			"buffer":0,
			"byteLength":21000,
			"byteOffset":1454168,
			"target":34962
		},
		{
			"buffer":0,
			"byteLength":21000,
			"byteOffset":1475168,
			"target":34962
		},
		{
			"buffer":0,
			"byteLength":14000,
			"byteOffset":1496168,
			"target":34962
		},
		{
			"buffer":0,
			"byteLength":6912,
			"byteOffset":1510168,
			"target":34963
		},
		{
			"buffer":0,
			"byteLength":8,
			"byteOffset":1517080
		},
		{
			"buffer":0,
			"byteLength":24,
			"byteOffset":1517088
		},
		{
			"buffer":0,
			"byteLength":720,
			"byteOffset":1517112
		},
		{
			"buffer":0,
			"byteLength":2880,
			"byteOffset":1517832
		},
		{
			"buffer":0,
			"byteLength":24,
			"byteOffset":1520712
		}
	],
	"buffers":[
		{
			"byteLength":1520736,
			"uri":"data:application/octet-stream;base64,"
		}
	]
}
